<svg xmlns="http://www.w3.org/2000/svg" version="1.1" viewBox="99.63 105.58 261.76 262.78">
<path d="M0 0 C0.91096939 -0.00945648 1.82193878 -0.01891296 2.76051331 -0.02865601 C3.73665085 -0.02258331 4.71278839 -0.01651062 5.71850586 -0.01025391 C6.72674911 -0.01312408 7.73499237 -0.01599426 8.77378845 -0.01895142 C10.90290896 -0.02099111 13.03204825 -0.0154679 15.16113281 -0.00292969 C18.4248223 0.0131416 21.68727649 -0.00279062 24.95092773 -0.02197266 C27.01928985 -0.01999054 29.08765119 -0.01614751 31.15600586 -0.01025391 C32.13416763 -0.0163266 33.11232941 -0.02239929 34.12013245 -0.02865601 C35.02794968 -0.01919952 35.93576691 -0.00974304 36.87109375 0 C37.66955215 0.00238678 38.46801056 0.00477356 39.29066467 0.00723267 C41.88369959 0.48210345 42.77438324 1.32793105 44.37084961 3.38818359 C44.71142578 5.38110352 44.71142578 5.38110352 44.66381836 7.61865234 C44.65415039 8.42109375 44.64448242 9.22353516 44.63452148 10.05029297 C44.60938477 10.88367188 44.58424805 11.71705078 44.55834961 12.57568359 C44.54481445 13.42066406 44.5312793 14.26564453 44.51733398 15.13623047 C44.4820076 17.22048744 44.428201 19.30441636 44.37084961 21.38818359 C44.99088867 21.52353516 45.61092773 21.65888672 46.24975586 21.79833984 C53.08015557 23.45871357 59.05713727 25.94600072 65.2421875 29.22631836 C68.75195395 31.06971672 68.75195395 31.06971672 72.57397461 30.84130859 C75.39564422 28.55943665 77.69051985 25.88761114 80.07788086 23.16552734 C83.32269687 20.65038035 85.25575894 20.35202885 89.37084961 20.38818359 C92.35033348 22.2097198 94.61889911 24.63369347 97.01928711 27.14990234 C97.71728424 27.85210403 98.41528137 28.55430573 99.13442993 29.27778625 C100.60437906 30.76418304 102.06468529 32.26016959 103.51586914 33.76489258 C105.73954496 36.06915047 107.99124383 38.34272027 110.24975586 40.61279297 C111.67466609 42.06095948 113.09790204 43.5107757 114.51928711 44.96240234 C115.52854752 45.98608162 115.52854752 45.98608162 116.55819702 47.03044128 C117.17619171 47.67403091 117.7941864 48.31762054 118.4309082 48.98071289 C118.97605072 49.54332321 119.52119324 50.10593353 120.08285522 50.68559265 C121.53560277 52.60596967 122.02697722 54.016191 122.37084961 56.38818359 C121.15267754 60.2863342 118.49666874 61.93218284 115.37084961 64.38818359 C112.9466896 66.70888325 112.9466896 66.70888325 111.37084961 69.38818359 C111.81371747 74.73148066 114.59173928 79.54571627 116.84350586 84.32958984 C118.85205072 88.74166538 119.9165584 92.55502994 120.37084961 97.38818359 C121.63541992 97.35337891 122.89999023 97.31857422 124.20288086 97.28271484 C125.86302384 97.25457683 127.52318117 97.22727668 129.18334961 97.20068359 C130.01672852 97.17554688 130.85010742 97.15041016 131.70874023 97.12451172 C132.51118164 97.11484375 133.31362305 97.10517578 134.14038086 97.09521484 C134.87877197 97.07950439 135.61716309 97.06379395 136.37792969 97.04760742 C138.99835982 97.49542073 139.73561653 98.31489514 141.37084961 100.38818359 C141.74507141 102.55775452 141.74507141 102.55775452 141.74316406 105.10327148 C141.74939285 106.0575856 141.75562164 107.01189972 141.76203918 107.99513245 C141.74822456 109.53740761 141.74822456 109.53740761 141.73413086 111.11083984 C141.73462936 112.16726181 141.73512787 113.22368378 141.73564148 114.31211853 C141.73330044 116.54558188 141.72357022 118.77904783 141.70703125 121.01245117 C141.68341859 124.4406682 141.68647272 127.86810895 141.69311523 131.29638672 C141.68753934 133.46370909 141.68043002 135.63102817 141.67163086 137.79833984 C141.67254227 138.82854752 141.67345367 139.85875519 141.6743927 140.92018127 C141.66486069 141.87134323 141.65532867 142.82250519 141.64550781 143.80249023 C141.64090042 144.64171524 141.63629303 145.48094025 141.63154602 146.34559631 C141.37084961 148.38818359 141.37084961 148.38818359 139.37084961 150.38818359 C136.76928711 150.58349609 136.76928711 150.58349609 133.74584961 150.51318359 C132.74295898 150.49513672 131.74006836 150.47708984 130.70678711 150.45849609 C129.93592773 150.43529297 129.16506836 150.41208984 128.37084961 150.38818359 C128.4056543 151.06365234 128.44045898 151.73912109 128.47631836 152.43505859 C128.50338867 153.32708984 128.53045898 154.21912109 128.55834961 155.13818359 C128.5931543 156.01990234 128.62795898 156.90162109 128.66381836 157.81005859 C128.30716008 160.94865146 127.65910047 162.21829054 125.37084961 164.38818359 C122.89038086 164.99755859 122.89038086 164.99755859 120.18334961 165.13818359 C119.28229492 165.19490234 118.38124023 165.25162109 117.45288086 165.31005859 C116.42227539 165.34873047 116.42227539 165.34873047 115.37084961 165.38818359 C115.10272461 166.23380859 114.83459961 167.07943359 114.55834961 167.95068359 C113.32301994 171.52663791 111.8765051 174.91898835 110.37084961 178.38818359 C111.15331055 179.13583984 111.93577148 179.88349609 112.74194336 180.65380859 C113.76447291 181.64819513 114.78658671 182.64300932 115.80834961 183.63818359 C116.32461914 184.12931641 116.84088867 184.62044922 117.37280273 185.12646484 C119.37897029 187.09329578 121.13148825 188.91488038 122.40600586 191.43505859 C122.32134439 196.13847333 118.2746679 199.73968176 115.14648438 202.88720703 C114.2987294 203.74449402 113.45097443 204.60178101 112.57752991 205.48504639 C111.20871925 206.85248993 111.20871925 206.85248993 109.81225586 208.24755859 C108.8618361 209.20186899 107.91163917 210.15640135 106.96165466 211.11114502 C104.97538251 213.10485662 102.98530838 215.09467747 100.99267578 217.08203125 C98.44090091 219.62799551 95.90071023 222.1851825 93.36345005 224.74560165 C91.40669575 226.71708616 89.44306011 228.68160193 87.47736931 230.64417267 C86.0815442 232.04075973 84.69227871 233.44389288 83.30311584 234.84710693 C82.45220871 235.69178528 81.60130157 236.53646362 80.72460938 237.40673828 C79.97865005 238.15332703 79.23269073 238.89991577 78.46412659 239.66912842 C76.32999978 241.42173057 75.09599261 242.10733508 72.37084961 242.38818359 C68.51252087 240.78054662 66.20643193 238.15424075 63.43334961 235.13818359 C60.48148376 231.97300974 60.48148376 231.97300974 56.37084961 231.13818359 C55.38084961 231.55068359 54.39084961 231.96318359 53.37084961 232.38818359 C52.6734668 232.60990234 51.97608398 232.83162109 51.25756836 233.06005859 C48.91745014 233.94123988 47.24527267 234.72502644 45.37084961 236.38818359 C44.6447073 238.80292903 44.495301 240.84805123 44.50366211 243.36474609 C44.37084961 245.38818359 44.37084961 245.38818359 42.37084961 247.38818359 C39.76928711 247.80224609 39.76928711 247.80224609 36.74584961 248.01318359 C35.24151367 248.12533203 35.24151367 248.12533203 33.70678711 248.23974609 C32.93592773 248.28873047 32.16506836 248.33771484 31.37084961 248.38818359 C31.43272461 249.60505859 31.49459961 250.82193359 31.55834961 252.07568359 C31.52351399 256.00514143 31.21184545 258.45840663 28.37084961 261.38818359 C22.80149359 262.34646668 17.3130319 262.5594416 11.67163086 262.59130859 C10.87355515 262.59700867 10.07547943 262.60270874 9.2532196 262.60858154 C7.58012186 262.61795917 5.90700624 262.6245364 4.23388672 262.62841797 C1.6796094 262.63819791 -0.8738868 262.66931799 -3.42797852 262.70068359 C-5.06143733 262.70720826 -6.69490183 262.71246083 -8.32836914 262.71630859 C-9.08679611 262.7286554 -9.84522308 262.7410022 -10.62663269 262.75372314 C-15.58277456 262.73290797 -19.05905414 261.95827985 -22.62915039 258.38818359 C-22.71546913 257.04550946 -22.73621512 255.69844038 -22.72680664 254.35302734 C-22.72358398 253.54414063 -22.72036133 252.73525391 -22.71704102 251.90185547 C-22.70447266 250.62665039 -22.70447266 250.62665039 -22.69165039 249.32568359 C-22.68713867 248.47167969 -22.68262695 247.61767578 -22.67797852 246.73779297 C-22.66615412 244.62122696 -22.64821808 242.50469674 -22.62915039 240.38818359 C-23.90661133 240.15357422 -25.18407227 239.91896484 -26.50024414 239.67724609 C-31.96089119 238.46376897 -36.70212783 236.24052606 -41.69165039 233.76318359 C-42.99005859 233.13283203 -42.99005859 233.13283203 -44.31469727 232.48974609 C-46.42381959 231.46431646 -48.52830586 230.43043822 -50.62915039 229.38818359 C-50.92192871 230.0047583 -51.21470703 230.62133301 -51.51635742 231.2565918 C-52.84967393 233.81060374 -54.47497739 235.53502471 -56.50415039 237.57568359 C-57.18219727 238.27048828 -57.86024414 238.96529297 -58.55883789 239.68115234 C-60.70183297 241.44811244 -61.88389908 242.13409595 -64.62915039 242.38818359 C-70.55502226 239.94811871 -73.95075575 236.04532423 -78.09399414 231.25537109 C-80.91872142 228.06068723 -83.86407757 225.02686291 -86.87915039 222.01318359 C-87.37439209 221.51367188 -87.86963379 221.01416016 -88.37988281 220.49951172 C-90.62161937 218.2656885 -92.88056185 216.18920938 -95.36352539 214.22412109 C-98.27809035 211.86231846 -99.52112392 210.24891063 -99.99243164 206.49365234 C-99.54640939 202.68088151 -98.45975981 201.42951548 -95.81665039 198.70068359 C-94.75510742 197.58113281 -94.75510742 197.58113281 -93.67211914 196.43896484 C-92.99793945 195.76220703 -92.32375977 195.08544922 -91.62915039 194.38818359 C-91.0477832 193.80423828 -90.46641602 193.22029297 -89.86743164 192.61865234 C-89.45879883 192.21259766 -89.05016602 191.80654297 -88.62915039 191.38818359 C-89.31750977 189.95539063 -89.31750977 189.95539063 -90.01977539 188.49365234 C-93.62920847 180.91197475 -96.95952829 173.3638869 -99.62915039 165.38818359 C-100.58176758 165.41138672 -101.53438477 165.43458984 -102.51586914 165.45849609 C-103.77012695 165.47654297 -105.02438477 165.49458984 -106.31665039 165.51318359 C-107.55801758 165.53638672 -108.79938477 165.55958984 -110.07836914 165.58349609 C-113.46624694 165.39714418 -115.65144415 164.96819099 -118.62915039 163.38818359 C-119.80264685 161.04119067 -119.76797181 159.61827671 -119.7902832 157.00195312 C-119.79989075 156.09406036 -119.80949829 155.1861676 -119.81939697 154.25076294 C-119.82364685 153.26743988 -119.82789673 152.28411682 -119.83227539 151.27099609 C-119.83797546 150.26229462 -119.84367554 149.25359314 -119.84954834 148.21432495 C-119.85900539 146.07746431 -119.86553511 143.94058904 -119.86938477 141.80371094 C-119.8790903 138.53343275 -119.91010731 135.26378293 -119.94165039 131.99365234 C-119.94818032 129.91943733 -119.95343083 127.84521782 -119.95727539 125.77099609 C-119.96962219 124.7917215 -119.98196899 123.8124469 -119.99468994 122.80349731 C-119.99168884 121.88930023 -119.98868774 120.97510315 -119.9855957 120.03320312 C-119.98924133 119.23093292 -119.99288696 118.42866272 -119.99664307 117.6020813 C-119.53507651 114.82145135 -118.5302136 113.44055826 -116.62915039 111.38818359 C-114.40258789 110.81396484 -114.40258789 110.81396484 -112.00415039 110.70068359 C-109.01744559 110.76048496 -109.01744559 110.76048496 -106.62915039 109.38818359 C-106.38653374 107.13274735 -106.24582906 104.87872837 -106.10571289 102.61474609 C-105.52688697 99.91039549 -104.88644191 98.97082394 -102.62915039 97.38818359 C-100.50805664 97.19287109 -100.50805664 97.19287109 -98.19165039 97.26318359 C-95.79707906 97.17781569 -95.79707906 97.17781569 -93.62915039 96.38818359 C-90.91467129 92.92686368 -89.88757141 89.16414079 -89.26196289 84.86474609 C-89.78059984 81.3667054 -91.42707677 80.29449995 -94.06665039 78.01318359 C-97.12795478 75.1018009 -98.52558737 73.67062819 -100.00415039 69.63818359 C-99.49497271 65.22531037 -98.04942504 64.16715674 -94.62915039 61.38818359 C-91.08230688 58.46329842 -87.70939724 55.59598404 -84.75024414 52.06396484 C-79.7020472 46.23217317 -74.31096919 40.73712746 -68.89501953 35.24902344 C-67.66805163 34.00026535 -66.4474004 32.74527168 -65.23291016 31.484375 C-63.46130922 29.64601533 -61.67092238 27.82799444 -59.87524414 26.01318359 C-59.33757919 25.44768799 -58.79991425 24.88219238 -58.24595642 24.29956055 C-55.66401754 21.73146402 -54.06739426 20.45655378 -50.42578125 19.88842773 C-46.42770254 20.60288143 -44.38558758 22.94039852 -41.75415039 25.82568359 C-41.25657227 26.34195313 -40.75899414 26.85822266 -40.24633789 27.39013672 C-36.62915039 31.19116479 -36.62915039 31.19116479 -36.62915039 32.38818359 C-37.90790039 32.55833984 -39.18665039 32.72849609 -40.50415039 32.90380859 C-42.21258805 33.14787112 -43.92091578 33.39270395 -45.62915039 33.63818359 C-46.46833008 33.74775391 -47.30750977 33.85732422 -48.17211914 33.97021484 C-55.28299128 35.0175526 -61.41584487 36.66411526 -66.06665039 42.38818359 C-68.74460189 47.52985048 -68.78730908 52.15718278 -68.84008789 57.88037109 C-68.86815509 59.57178704 -68.89681955 61.26319317 -68.92602539 62.95458984 C-68.96725835 65.60969785 -69.00416467 68.2646221 -69.03051758 70.91992188 C-69.05821417 73.49045211 -69.10407915 76.06016038 -69.15258789 78.63037109 C-69.15584076 79.41805878 -69.15909363 80.20574646 -69.16244507 81.01730347 C-69.28520941 86.55602777 -70.26104262 90.92899476 -74.25415039 95.07568359 C-80.05670629 98.28235922 -84.97299631 99.38818359 -91.62915039 99.38818359 C-91.62915039 105.65818359 -91.62915039 111.92818359 -91.62915039 118.38818359 C-89.93790039 118.49130859 -88.24665039 118.59443359 -86.50415039 118.70068359 C-80.47629524 119.2655532 -76.52679577 120.33667508 -72.31665039 124.88818359 C-69.33365662 129.30743363 -69.46707304 133.34921724 -69.41821289 138.49365234 C-69.39012875 140.13363602 -69.36146419 141.77360983 -69.33227539 143.41357422 C-69.29115852 145.98949746 -69.25425772 148.56523982 -69.2277832 151.14135742 C-69.19996535 153.63417292 -69.15408223 156.12616169 -69.10571289 158.61865234 C-69.10246002 159.37728073 -69.09920715 160.13590912 -69.09585571 160.91752625 C-68.94605538 167.52281015 -67.62938291 173.08022299 -63.19165039 178.20068359 C-55.04212708 184.14763303 -43.26916772 183.97463255 -33.62915039 184.38818359 C-33.64075195 183.50775391 -33.65235352 182.62732422 -33.66430664 181.72021484 C-33.67333008 180.55876953 -33.68235352 179.39732422 -33.69165039 178.20068359 C-33.70325195 177.05212891 -33.71485352 175.90357422 -33.72680664 174.72021484 C-33.64107871 171.79517773 -33.30764062 169.22502068 -32.62915039 166.38818359 C-33.22083008 166.36240234 -33.81250977 166.33662109 -34.42211914 166.31005859 C-39.67896939 165.93273166 -42.80663396 165.33015367 -46.62915039 161.38818359 C-48.10109545 158.44429348 -47.8138249 155.75767241 -47.87524414 152.47412109 C-47.90821485 151.05875108 -47.94142589 149.64338664 -47.97485352 148.22802734 C-48.02200623 146.00329883 -48.06637636 143.77858745 -48.10595703 141.55371094 C-47.78966881 128.29436365 -47.78966881 128.29436365 -52.87915039 116.57568359 C-57.41011532 112.97150695 -62.13226832 111.08959947 -67.62915039 109.38818359 C-67.62915039 108.72818359 -67.62915039 108.06818359 -67.62915039 107.38818359 C-66.8930957 107.14583984 -66.15704102 106.90349609 -65.39868164 106.65380859 C-56.73331409 103.79620772 -56.73331409 103.79620772 -50.37915039 97.51318359 C-48.58798183 92.438206 -48.50870802 87.31128679 -48.48852539 81.97802734 C-48.47021201 80.56199544 -48.45064307 79.14597932 -48.42993164 77.72998047 C-48.40091189 75.52226595 -48.37914817 73.31558418 -48.37866211 71.10766602 C-48.37532144 68.95937906 -48.3407728 66.81340994 -48.30102539 64.66552734 C-48.29167969 63.3892749 -48.28233398 62.11302246 -48.27270508 60.7980957 C-47.43640277 56.36689906 -46.28147165 55.01229317 -42.62915039 52.38818359 C-39.65915039 51.72818359 -36.68915039 51.06818359 -33.62915039 50.38818359 C-33.62915039 44.11818359 -33.62915039 37.84818359 -33.62915039 31.38818359 C-24.87915039 26.38818359 -24.87915039 26.38818359 -22.62915039 26.38818359 C-22.69102539 25.33630859 -22.75290039 24.28443359 -22.81665039 23.20068359 C-22.6165115 19.13119288 -22.3632981 17.38692625 -19.62915039 14.38818359 C-15.56580679 13.35387795 -12.61627683 13.24900461 -8.62915039 14.38818359 C-8.67555664 13.62892578 -8.72196289 12.86966797 -8.76977539 12.08740234 C-8.80586914 11.09353516 -8.84196289 10.09966797 -8.87915039 9.07568359 C-8.92555664 8.08955078 -8.97196289 7.10341797 -9.01977539 6.08740234 C-8.62915039 3.38818359 -8.62915039 3.38818359 -6.89405823 1.7437439 C-4.33388227 0.21146394 -2.95688219 0.00883002 0 0 Z M74.37084961 70.38818359 C74.37084961 75.66818359 74.37084961 80.94818359 74.37084961 86.38818359 C76.78397461 87.28537109 76.78397461 87.28537109 79.24584961 88.20068359 C84.12084961 90.01318359 84.12084961 90.01318359 86.37084961 93.38818359 C86.6262207 96.44750977 86.6262207 96.44750977 86.64428711 100.18115234 C86.66459324 101.54769674 86.68544432 102.91423312 86.70678711 104.28076172 C86.72927441 106.4221878 86.74581552 108.56329572 86.75170898 110.70483398 C86.74040951 122.14960855 86.74040951 122.14960855 91.37084961 132.38818359 C95.70274793 135.89993772 99.88365384 136.94024924 105.37084961 137.38818359 C105.37084961 138.04818359 105.37084961 138.70818359 105.37084961 139.38818359 C104.51813477 139.50033203 104.51813477 139.50033203 103.64819336 139.61474609 C97.67340828 140.63215524 93.15472052 142.48277754 89.37084961 147.38818359 C87.55002265 151.91472537 87.12074765 155.75401706 87.09741211 160.61474609 C87.07714004 161.98975448 87.0562896 163.36475445 87.03491211 164.73974609 C87.01226125 166.88369958 86.99581123 169.02731873 86.98999023 171.17138672 C86.98046566 173.25726911 86.94672026 175.34169161 86.90991211 177.42724609 C86.90169434 178.66684082 86.89347656 179.90643555 86.88500977 181.18359375 C86.28180802 184.94315029 85.34658344 186.09740129 82.37084961 188.38818359 C79.71906371 189.41405697 77.17808161 189.82673719 74.37084961 190.38818359 C74.37084961 195.66818359 74.37084961 200.94818359 74.37084961 206.38818359 C88.94004645 206.95059922 88.94004645 206.95059922 101.87084961 201.01318359 C107.6515472 194.94345113 107.47990166 187.13443793 107.51147461 179.09912109 C107.52978308 177.73191667 107.54935154 176.36472864 107.57006836 174.99755859 C107.59910785 172.87324607 107.62085262 170.75001292 107.62133789 168.62548828 C107.62467866 166.55325865 107.65921726 164.48343131 107.69897461 162.41162109 C107.70832031 161.18362793 107.71766602 159.95563477 107.72729492 158.69042969 C108.54542585 154.49238759 110.07144512 153.02716338 113.37084961 150.38818359 C117.66142156 148.91439979 121.8959754 148.24699784 126.37084961 147.38818359 C126.37084961 141.77818359 126.37084961 136.16818359 126.37084961 130.38818359 C123.55553711 129.76943359 123.55553711 129.76943359 120.68334961 129.13818359 C116.05140878 127.98566058 112.71739029 126.96552018 109.37084961 123.38818359 C107.93378246 120.51404929 108.18746359 117.97246813 108.12475586 114.76318359 C108.0917683 113.40250127 108.05855763 112.04182434 108.02514648 110.68115234 C107.97812871 108.54659433 107.93379403 106.4120498 107.89404297 104.27734375 C107.92146911 90.4772821 107.92146911 90.4772821 103.87084961 77.51318359 C95.44894734 70.35456667 84.85874354 70.26028245 74.37084961 70.38818359 Z M40.37084961 86.38818359 C40.37084961 87.04818359 40.37084961 87.70818359 40.37084961 88.38818359 C39.38084961 88.88318359 39.38084961 88.88318359 38.37084961 89.38818359 C39.03084961 89.71818359 39.69084961 90.04818359 40.37084961 90.38818359 C39.86782372 94.78966016 38.3463916 97.14213779 35.37084961 100.38818359 C34.38084961 100.88318359 34.38084961 100.88318359 33.37084961 101.38818359 C33.70084961 102.04818359 34.03084961 102.70818359 34.37084961 103.38818359 C36.4190401 103.78375686 38.48683848 104.07991109 40.55834961 104.32568359 C46.85554096 105.20853189 52.15402719 106.33183453 56.37084961 111.38818359 C57.59765625 114.28320312 57.59765625 114.28320312 58.78100586 117.77099609 C58.99397812 118.38586884 59.20695038 119.00074158 59.42637634 119.63424683 C60.10366777 121.59115651 60.76963559 123.55163082 61.43334961 125.51318359 C62.31162846 128.10222712 63.19972699 130.68718694 64.09350586 133.27099609 C64.4828833 134.41971191 64.87226074 135.56842773 65.2734375 136.75195312 C66.0883976 139.51940288 66.0883976 139.51940288 68.37084961 140.38818359 C67.87581392 121.10654368 63.12365655 106.14320915 49.83569336 91.70068359 C45.69677552 87.74787484 45.69677552 87.74787484 40.37084961 86.38818359 Z M30.37084961 104.38818359 C28.1571491 106.17476116 28.1571491 106.17476116 28.17553711 108.55224609 C28.19874023 109.36435547 28.22194336 110.17646484 28.24584961 111.01318359 C28.26389648 111.83044922 28.28194336 112.64771484 28.30053711 113.48974609 C28.32374023 114.11623047 28.34694336 114.74271484 28.37084961 115.38818359 C29.03084961 115.38818359 29.69084961 115.38818359 30.37084961 115.38818359 C30.70084961 111.75818359 31.03084961 108.12818359 31.37084961 104.38818359 C31.04084961 104.38818359 30.71084961 104.38818359 30.37084961 104.38818359 Z M6.37084961 105.38818359 C6.37084961 109.01818359 6.37084961 112.64818359 6.37084961 116.38818359 C7.03084961 116.38818359 7.69084961 116.38818359 8.37084961 116.38818359 C8.37084961 113.08818359 8.37084961 109.78818359 8.37084961 106.38818359 C7.71084961 106.05818359 7.05084961 105.72818359 6.37084961 105.38818359 Z M-34.36743164 86.06005859 C-44.6340884 98.47555048 -47.69899891 114.75836544 -46.62915039 130.38818359 C-44.21798006 147.85033119 -35.97803754 163.98428043 -22.28149414 175.33349609 C-7.17311869 186.39541283 9.87143805 190.37440568 28.37084961 188.38818359 C39.32603707 186.32721605 52.69867356 182.02660607 59.32006836 172.61865234 C64.7955599 163.08533857 64.7955599 163.08533857 66.37084961 152.38818359 C65.71084961 152.38818359 65.05084961 152.38818359 64.37084961 152.38818359 C64.37084961 153.04818359 64.37084961 153.70818359 64.37084961 154.38818359 C63.71084961 154.38818359 63.05084961 154.38818359 62.37084961 154.38818359 C62.14397461 155.19255859 61.91709961 155.99693359 61.68334961 156.82568359 C61.25022461 157.67130859 60.81709961 158.51693359 60.37084961 159.38818359 C57.78881836 160.04833984 57.78881836 160.04833984 55.37084961 160.38818359 C55.50362305 159.27701172 55.63639648 158.16583984 55.77319336 157.02099609 C56.04612792 154.73549043 56.31558297 152.44976323 56.57641602 150.1628418 C56.95760717 146.82166994 57.35399435 143.49741095 57.86694336 140.17333984 C57.99198242 139.31611328 58.11702148 138.45888672 58.24584961 137.57568359 C58.42760742 136.48320312 58.42760742 136.48320312 58.61303711 135.36865234 C58.23378562 132.26735384 56.78832459 131.28762497 54.37084961 129.38818359 C51.04588169 128.78133206 51.04588169 128.78133206 47.26318359 128.87060547 C46.55540771 128.86359619 45.84763184 128.85658691 45.1184082 128.84936523 C42.78418487 128.83179199 40.45117851 128.84340312 38.11694336 128.85693359 C36.49316678 128.85423876 34.86939178 128.8503564 33.24562073 128.84533691 C29.84523124 128.83944308 26.44526243 128.84800187 23.04492188 128.86669922 C18.68429113 128.88950736 14.32464412 128.87635392 9.96404934 128.85240936 C6.61229522 128.83796351 3.26077486 128.84255137 -0.09098625 128.85292053 C-1.69896498 128.85559026 -3.30696489 128.85230939 -4.9149189 128.84300232 C-7.16081196 128.83285404 -9.4051052 128.84830982 -11.65087891 128.87060547 C-13.56804466 128.87537903 -13.56804466 128.87537903 -15.52394104 128.88024902 C-18.69015676 129.09754758 -18.69015676 129.09754758 -20.56121826 131.23724365 C-22.06688973 134.2698417 -21.69113814 136.34590938 -21.26586914 139.68505859 C-21.12084961 140.89033203 -20.97583008 142.09560547 -20.82641602 143.33740234 C-20.65819336 144.59166016 -20.4899707 145.84591797 -20.31665039 147.13818359 C-20.1600293 148.40791016 -20.0034082 149.67763672 -19.84204102 150.98583984 C-19.45294405 154.12219719 -19.04810292 157.25569801 -18.62915039 160.38818359 C-23.55946835 157.50782413 -27.01444655 154.61759127 -29.62915039 149.38818359 C-30.83129877 140.11724992 -27.97606116 132.4375093 -24.69165039 123.88818359 C-24.21669444 122.61536008 -23.7433763 121.34192416 -23.27172852 120.06787109 C-22.40949233 117.75037873 -21.53996536 115.43557576 -20.66064453 113.12451172 C-19.94513376 111.22641829 -19.27061078 109.31256476 -18.62915039 107.38818359 C-12.1788707 104.401943 -4.59420638 103.51371545 2.37084961 102.38818359 C1.93772461 101.90349609 1.50459961 101.41880859 1.05834961 100.91943359 C-2.23041896 96.96073069 -4.51459269 93.96747099 -4.10571289 88.54443359 C-3.32624267 85.01765032 -1.97158772 81.78128954 -0.50415039 78.48974609 C0.4989735 76.45986452 0.4989735 76.45986452 0.37084961 74.38818359 C-12.03209086 73.3802697 -25.27505803 77.31503409 -34.36743164 86.06005859 Z " fill="#010101" transform="translate(219.629150390625,105.61181640625)"/>
<path d="M0 0 C0.02505615 1.145896 0.0501123 2.29179199 0.07592773 3.47241211 C0.16983106 7.70853598 0.27009275 11.94448928 0.37231445 16.18041992 C0.4157282 18.01664247 0.45739839 19.85290708 0.49731445 21.68920898 C0.55486169 24.32288311 0.61859998 26.95634421 0.68359375 29.58984375 C0.70030624 30.41588608 0.71701874 31.24192841 0.73423767 32.09300232 C0.47807433 35.85476753 0.47807433 35.85476753 2 39 C3.41327947 39.15620555 4.8335459 39.25056173 6.25390625 39.31640625 C7.10791016 39.35830078 7.96191406 39.40019531 8.84179688 39.44335938 C9.73962891 39.48267578 10.63746094 39.52199219 11.5625 39.5625 C12.46419922 39.60568359 13.36589844 39.64886719 14.29492188 39.69335938 C16.52978485 39.79978142 18.76476308 39.90179988 21 40 C21.43699219 41.39798828 21.43699219 41.39798828 21.8828125 42.82421875 C24.6710126 51.55735438 27.9547815 59.75665096 32 68 C31.21753906 68.73605469 30.43507812 69.47210938 29.62890625 70.23046875 C28.60624544 71.21560072 27.5841389 72.2013083 26.5625 73.1875 C26.04623047 73.67025391 25.52996094 74.15300781 24.99804688 74.65039062 C21.89685978 77.67050093 20.30051723 79.6579434 20 84 C20.96712941 85.90174966 20.96712941 85.90174966 22.68359375 87.53125 C23.33312012 88.21703125 23.98264648 88.9028125 24.65185547 89.609375 C25.42674316 90.39828125 26.20163086 91.1871875 27 92 C28.35375732 93.43085938 28.35375732 93.43085938 29.73486328 94.890625 C32.27829676 97.57538676 34.85706556 100.22286179 37.45239258 102.85742188 C38.5338522 103.96069107 39.60898841 105.07019132 40.67797852 106.18554688 C42.24108298 107.81545473 43.82291596 109.4248795 45.41015625 111.03125 C45.88219986 111.53112427 46.35424347 112.03099854 46.84059143 112.54602051 C49.28292921 114.97354516 50.72719497 115.96015774 54.17114258 116.46313477 C58.20170091 115.80325998 60.07267444 113.39718826 62.625 110.4375 C64.35144102 108.45449066 66.02458979 106.76354597 68 105 C72.82156222 105.64801699 77.31605745 108.29769405 81.71679688 110.296875 C86.71714778 112.53198887 91.77726979 114.35263818 97 116 C97.02505615 116.57032959 97.0501123 117.14065918 97.07592773 117.72827148 C97.19156549 120.29826157 97.31443624 122.86785527 97.4375 125.4375 C97.47681641 126.33533203 97.51613281 127.23316406 97.55664062 128.15820312 C97.59853516 129.01220703 97.64042969 129.86621094 97.68359375 130.74609375 C97.72025146 131.53685303 97.75690918 132.3276123 97.79467773 133.14233398 C97.80563257 135.01401441 97.80563257 135.01401441 99 136 C101.73701178 136.16010481 104.4516759 136.25946828 107.19140625 136.31640625 C108.42116432 136.3475779 108.42116432 136.3475779 109.67576599 136.37937927 C112.30458901 136.44496494 114.93351504 136.50380126 117.5625 136.5625 C119.34050561 136.60567667 121.11850065 136.64929067 122.89648438 136.69335938 C127.26421634 136.80065543 131.63205227 136.90189704 136 137 C136.02712066 138.43739513 136.04645067 139.87493863 136.0625 141.3125 C136.07410156 142.11300781 136.08570313 142.91351563 136.09765625 143.73828125 C135.95508888 147.04014162 135.34545328 148.65454672 133 151 C127.42928747 151.95244032 121.94269375 152.17125512 116.30078125 152.203125 C115.50270554 152.20882507 114.70462982 152.21452515 113.88237 152.22039795 C112.20927225 152.22977558 110.53615663 152.2363528 108.86303711 152.24023438 C106.30875979 152.25001432 103.75526359 152.28113439 101.20117188 152.3125 C99.56771306 152.31902467 97.93424856 152.32427724 96.30078125 152.328125 C95.54235428 152.3404718 94.78392731 152.3528186 94.0025177 152.36553955 C89.04637583 152.34472438 85.57009625 151.57009625 82 148 C81.91368126 146.65732587 81.89293527 145.31025678 81.90234375 143.96484375 C81.90556641 143.15595703 81.90878906 142.34707031 81.91210938 141.51367188 C81.92467773 140.2384668 81.92467773 140.2384668 81.9375 138.9375 C81.94201172 138.08349609 81.94652344 137.22949219 81.95117188 136.34960938 C81.96299627 134.23304337 81.98093231 132.11651315 82 130 C80.72253906 129.76539063 79.44507813 129.53078125 78.12890625 129.2890625 C72.6682592 128.07558538 67.92702256 125.85234246 62.9375 123.375 C62.07189453 122.95476562 61.20628906 122.53453125 60.31445312 122.1015625 C58.2053308 121.07613286 56.10084453 120.04225463 54 119 C53.70722168 119.61657471 53.41444336 120.23314941 53.11279297 120.8684082 C51.77947646 123.42242015 50.154173 125.14684112 48.125 127.1875 C47.10792969 128.22970703 47.10792969 128.22970703 46.0703125 129.29296875 C43.92731742 131.05992885 42.74525131 131.74591235 40 132 C34.07412813 129.55993511 30.67839464 125.65714064 26.53515625 120.8671875 C23.71042897 117.67250364 20.76507282 114.63867932 17.75 111.625 C17.2547583 111.12548828 16.7595166 110.62597656 16.24926758 110.11132812 C14.00753102 107.87750491 11.74858854 105.80102579 9.265625 103.8359375 C6.35106004 101.47413486 5.10802647 99.86072703 4.63671875 96.10546875 C5.082741 92.29269792 6.16939058 91.04133189 8.8125 88.3125 C9.87404297 87.19294922 9.87404297 87.19294922 10.95703125 86.05078125 C11.63121094 85.37402344 12.30539063 84.69726562 13 84 C13.58136719 83.41605469 14.16273438 82.83210938 14.76171875 82.23046875 C15.17035156 81.82441406 15.57898438 81.41835938 16 81 C15.54109375 80.04480469 15.0821875 79.08960938 14.609375 78.10546875 C10.99994192 70.52379116 7.66962211 62.97570331 5 55 C3.57107422 55.03480469 3.57107422 55.03480469 2.11328125 55.0703125 C0.85902344 55.08835937 -0.39523438 55.10640625 -1.6875 55.125 C-2.92886719 55.14820313 -4.17023438 55.17140625 -5.44921875 55.1953125 C-8.83709655 55.00896059 -11.02229376 54.58000739 -14 53 C-15.17349646 50.65300708 -15.13882142 49.23009311 -15.16113281 46.61376953 C-15.17074036 45.70587677 -15.1803479 44.79798401 -15.19024658 43.86257935 C-15.19449646 42.87925629 -15.19874634 41.89593323 -15.203125 40.8828125 C-15.20882507 39.87411102 -15.21452515 38.86540955 -15.22039795 37.82614136 C-15.229855 35.68928072 -15.23638472 33.55240544 -15.24023438 31.41552734 C-15.2499399 28.14524916 -15.28095692 24.87559933 -15.3125 21.60546875 C-15.31902993 19.53125374 -15.32428044 17.45703423 -15.328125 15.3828125 C-15.3404718 14.4035379 -15.3528186 13.42426331 -15.36553955 12.41531372 C-15.36253845 11.50111664 -15.35953735 10.58691956 -15.35644531 9.64501953 C-15.36009094 8.84274933 -15.36373657 8.04047913 -15.36749268 7.21389771 C-14.90344968 4.41834886 -13.92994052 3.05022787 -12 1 C-7.97769665 -0.07261423 -4.13940472 -0.02309291 0 0 Z " fill="#D6D5D5" transform="translate(115,216)"/>
<path d="M0 0 C8.482221 4.17643126 13.24737165 15.88865579 16.16796875 24.40625 C16.44253906 25.2621875 16.71710938 26.118125 17 27 C17.33 27.33 17.66 27.66 18 28 C17.7196577 34.02735938 15.13020564 36.86979436 11 41 C11.86882812 41.10957031 12.73765625 41.21914062 13.6328125 41.33203125 C21.90118993 42.4696268 28.31313604 43.4779925 34 50 C35.35620117 52.99267578 35.35620117 52.99267578 36.54296875 56.4453125 C36.97673828 57.68667969 37.41050781 58.92804688 37.85742188 60.20703125 C38.3011652 61.51289043 38.74452031 62.81888158 39.1875 64.125 C39.64148641 65.43917972 40.09655408 66.75298646 40.55273438 68.06640625 C41.38489387 70.46432311 42.21183963 72.86405989 43.03198242 75.26611328 C43.90822218 77.91896871 43.90822218 77.91896871 45 80 C44.9140625 82.09375 44.9140625 82.09375 44.625 84.5 C44.53476562 85.2940625 44.44453125 86.088125 44.3515625 86.90625 C44 89 44 89 43 91 C42.34 91 41.68 91 41 91 C41 91.66 41 92.32 41 93 C40.34 93 39.68 93 39 93 C38.731875 93.78375 38.46375 94.5675 38.1875 95.375 C37 98 37 98 34 100 C32.515 99.505 32.515 99.505 31 99 C31.13277344 97.88882813 31.26554687 96.77765625 31.40234375 95.6328125 C31.76789353 92.56853373 32.12428951 89.50333087 32.4765625 86.4375 C32.77331689 83.86780266 33.097623 81.31167509 33.4609375 78.75 C33.57695312 77.88375 33.69296875 77.0175 33.8125 76.125 C33.97685547 75.01511719 33.97685547 75.01511719 34.14453125 73.8828125 C34.15059905 71.94225122 34.15059905 71.94225122 32.93107605 70.40361023 C29.99971339 68.27293774 27.54754559 68.64089047 23.95825195 68.65942383 C22.88957886 68.65876671 22.88957886 68.65876671 21.79931641 68.65809631 C19.44535885 68.6601857 17.09211431 68.68352285 14.73828125 68.70703125 C13.10589487 68.7126267 11.47350345 68.71689704 9.84111023 68.71989441 C5.54525842 68.7313473 1.24971104 68.76081813 -3.04602051 68.79400635 C-7.42972699 68.82469776 -11.81348267 68.83839775 -16.19726562 68.85351562 C-24.79831677 68.88568755 -33.39912051 68.93688907 -42 69 C-43.59867385 72.00773174 -44.22803936 73.64355788 -43.7578125 77.046875 C-43.61279297 78.1915625 -43.61279297 78.1915625 -43.46484375 79.359375 C-43.35269531 80.14828125 -43.24054688 80.9371875 -43.125 81.75 C-42.34053445 87.56085596 -41.87940545 93.13106531 -42 99 C-45.79472973 98.45550236 -47.27031268 96.96207612 -49.6875 94.0625 C-50.28949219 93.35222656 -50.89148438 92.64195312 -51.51171875 91.91015625 C-55.05960621 87.35656841 -54.55208635 82.56059382 -54 77 C-52.76978548 72.07774631 -51.08120651 67.37667393 -49.3125 62.625 C-48.87744141 61.38105469 -48.44238281 60.13710937 -47.99414062 58.85546875 C-45.75949872 52.70441001 -44.06148007 48.35779184 -39 44 C-35.80859375 42.890625 -35.80859375 42.890625 -32.4375 42.25 C-31.32246094 42.02828125 -30.20742187 41.8065625 -29.05859375 41.578125 C-27.54458984 41.29195312 -27.54458984 41.29195312 -26 41 C-24.66377896 40.67843786 -23.32882176 40.35088692 -22 40 C-22.6496875 39.38125 -22.6496875 39.38125 -23.3125 38.75 C-26.34084535 35.60949372 -27.87222012 33.68536479 -28.6875 29.3125 C-28.07436944 21.67079965 -24.56907656 14.16521223 -19 9 C-17.23831191 6.95242393 -15.50659071 4.88293881 -13.78125 2.8046875 C-9.64949299 -1.38143473 -5.53539156 -1.68876353 0 0 Z M7 43 C4.78629949 44.78657757 4.78629949 44.78657757 4.8046875 47.1640625 C4.82789063 47.97617188 4.85109375 48.78828125 4.875 49.625 C4.89304688 50.44226563 4.91109375 51.25953125 4.9296875 52.1015625 C4.95289063 52.72804688 4.97609375 53.35453125 5 54 C5.66 54 6.32 54 7 54 C7.33 50.37 7.66 46.74 8 43 C7.67 43 7.34 43 7 43 Z M-17 44 C-17 47.63 -17 51.26 -17 55 C-16.34 55 -15.68 55 -15 55 C-15 51.7 -15 48.4 -15 45 C-15.66 44.67 -16.32 44.34 -17 44 Z " fill="#050405" transform="translate(243,167)"/>
<path d="M0 0 C1.70363722 3.93737704 2.15239732 5.9730775 1.1875 10.1875 C-1.19913592 19.21380318 -1.19913592 19.21380318 0 28 C-0.41283632 29.76682395 -0.90440581 31.51566691 -1.4375 33.25 C-2.62881406 37.34447131 -3.10968401 40.72232362 -3 45 C-5.69886885 47.69886885 -7.09609614 47.25867215 -10.87084961 47.2746582 C-12.10230209 47.28419022 -13.33375458 47.29372223 -14.6025238 47.30354309 C-15.95246407 47.30328167 -17.30240436 47.30234464 -18.65234375 47.30078125 C-20.03235504 47.30466699 -21.41236513 47.30900141 -22.79237366 47.31376648 C-25.68673578 47.32123415 -28.58097594 47.32093364 -31.4753418 47.31567383 C-35.18570238 47.30988004 -38.89556363 47.32680469 -42.60584164 47.3500185 C-45.45657778 47.36474649 -48.30719344 47.36562883 -51.15796089 47.36250877 C-52.52591503 47.36302252 -53.89387582 47.36827027 -55.26179314 47.37832069 C-57.1744087 47.39064742 -59.08712491 47.381964 -60.99975586 47.37231445 C-62.6328495 47.37325859 -62.6328495 47.37325859 -64.29893494 47.3742218 C-67 47 -67 47 -68.90235901 45.6525116 C-70.60366355 43.09117733 -69.52064949 40.95034712 -69 38 C-69.63920943 35.99105606 -70.31039038 33.99220557 -71 32 C-71.20638583 30.50218904 -71.37013554 28.99822142 -71.50390625 27.4921875 C-71.62572266 26.16574219 -71.62572266 26.16574219 -71.75 24.8125 C-71.87375 23.4203125 -71.87375 23.4203125 -72 22 C-72.1773416 20.14312918 -72.3557301 18.28635805 -72.53515625 16.4296875 C-72.71118286 14.57814831 -72.88696343 12.72658571 -73.0625 10.875 C-73.19881836 9.44027344 -73.19881836 9.44027344 -73.33789062 7.9765625 C-73.55881313 5.6510624 -73.77951325 3.32554144 -74 1 C-71.40853522 -0.29573239 -69.46539885 -0.16756586 -66.56323242 -0.22119141 C-64.85456245 -0.25595078 -64.85456245 -0.25595078 -63.1113739 -0.29141235 C-61.8719252 -0.3112619 -60.6324765 -0.33111145 -59.35546875 -0.3515625 C-58.07956375 -0.37471527 -56.80365875 -0.39786804 -55.48908997 -0.42172241 C-52.77800841 -0.47024951 -50.0668957 -0.51513714 -47.35571289 -0.55761719 C-43.91765024 -0.61185261 -40.4798532 -0.67582477 -37.04201794 -0.74279213 C-33.72992841 -0.80571122 -30.41770442 -0.85937652 -27.10546875 -0.9140625 C-25.88828659 -0.93796051 -24.67110443 -0.96185852 -23.41703796 -0.98648071 C-15.55473527 -1.09947052 -7.82803668 -0.73941265 0 0 Z M-34 13 C-37.14958831 16.42346555 -37.56179109 19.44262737 -38 24 C-34.64306263 21.76204175 -34.08029437 20.7810303 -33 17 C-33.28739925 14.75759218 -33.28739925 14.75759218 -34 13 Z M-30 15 C-30.2773501 18.18490007 -30.2773501 18.18490007 -28 21 C-28.99 21.33 -29.98 21.66 -31 22 C-29.21858253 22.86358623 -29.21858253 22.86358623 -27 23 C-24.72855926 21.14567913 -24.72855926 21.14567913 -23 19 C-26.26162958 16.34807995 -26.26162958 16.34807995 -30 15 Z M-43 15 C-44.98 16.32 -46.96 17.64 -49 19 C-46.63707344 21.52588702 -45.33537489 22.88820837 -42 24 C-42 23.01 -42 22.02 -42 21 C-42.66 20.67 -43.32 20.34 -44 20 C-43.01 18.68 -42.02 17.36 -41 16 C-41.66 15.67 -42.32 15.34 -43 15 Z M-67 38 C-67 38.33 -67 38.66 -67 39 C-55.45 39 -43.9 39 -32 39 C-32 38.67 -32 38.34 -32 38 C-43.55 38 -55.1 38 -67 38 Z M-12 38 C-12 38.33 -12 38.66 -12 39 C-9.69 39 -7.38 39 -5 39 C-5 38.67 -5 38.34 -5 38 C-7.31 38 -9.62 38 -12 38 Z " fill="#020101" transform="translate(274,238)"/>
<path d="M0 0 C0.91128662 0.00757324 1.82257324 0.01514648 2.76147461 0.02294922 C21.72191735 0.47958641 36.83693547 7.99112399 49.8125 21.4375 C61.28833776 33.96048124 67.53091781 50.5501129 67.28295898 67.52197266 C66.45681424 85.61784714 57.0702874 103.30511484 43.8125 115.4375 C43.1525 115.4375 42.4925 115.4375 41.8125 115.4375 C43.5950081 110.83268741 43.5950081 110.83268741 44.73046875 108.76953125 C52.3858827 94.07465619 52.51856493 74.21688261 48.125 58.5625 C44.55164418 48.31462598 38.67927427 35.45116034 28.515625 30.265625 C27.76796875 29.95109375 27.0203125 29.6365625 26.25 29.3125 C20.14802726 26.38952705 18.23639526 20.11611483 15.63671875 14.25 C13.58998338 9.72896924 11.20152789 6.38456447 7.0625 3.5625 C2.96757359 2.14502547 -0.20429174 1.69856206 -4.1875 3.4375 C-8.15422551 6.97123787 -11.24999976 11.03124964 -14.1875 15.4375 C-16.71010337 15.88722032 -19.08213298 16.17652522 -21.625 16.375 C-29.64227241 17.18221667 -36.89456913 18.82413916 -43.86328125 23.06640625 C-46.1875 24.4375 -46.1875 24.4375 -48.1875 24.4375 C-44.57342343 15.99197369 -36.08461598 11.02131883 -28.1875 7.0625 C-27.54796387 6.74120117 -26.90842773 6.41990234 -26.24951172 6.08886719 C-17.67436418 1.99475843 -9.51581273 -0.11244419 0 0 Z " fill="#D5D5D5" transform="translate(236.1875,164.5625)"/>
<path d="M0 0 C3.99807871 0.7144537 6.04019367 3.05197079 8.67163086 5.93725586 C9.16920898 6.45352539 9.66678711 6.96979492 10.17944336 7.50170898 C13.79663086 11.30273706 13.79663086 11.30273706 13.79663086 12.49975586 C12.51788086 12.66991211 11.23913086 12.84006836 9.92163086 13.01538086 C8.2131932 13.25944338 6.50486547 13.50427622 4.79663086 13.74975586 C3.95745117 13.85932617 3.11827148 13.96889648 2.25366211 14.08178711 C-4.85721003 15.12912487 -10.99006362 16.77568752 -15.64086914 22.49975586 C-18.31882064 27.64142275 -18.36152783 32.26875504 -18.41430664 37.99194336 C-18.44237384 39.68335931 -18.4710383 41.37476544 -18.50024414 43.06616211 C-18.5414771 45.72127011 -18.57838342 48.37619436 -18.60473633 51.03149414 C-18.63243292 53.60202438 -18.6782979 56.17173265 -18.72680664 58.74194336 C-18.73005951 59.52963104 -18.73331238 60.31731873 -18.73666382 61.12887573 C-18.85942816 66.66760004 -19.83526137 71.04056702 -23.82836914 75.18725586 C-27.79619846 77.38000364 -32.6212161 79.87714746 -37.23461914 79.20288086 C-39.32559297 78.45610449 -41.2472606 77.54767115 -43.20336914 76.49975586 C-42.91461914 75.90807617 -42.62586914 75.31639648 -42.32836914 74.70678711 C-41.95711914 73.9165918 -41.58586914 73.12639648 -41.20336914 72.31225586 C-40.83211914 71.53495117 -40.46086914 70.75764648 -40.07836914 69.95678711 C-39.08271087 67.16094312 -38.72515554 65.43868022 -39.20336914 62.49975586 C-41.12970722 60.19372215 -41.12970722 60.19372215 -43.64086914 58.12475586 C-46.70217353 55.21337317 -48.09980612 53.78220046 -49.57836914 49.74975586 C-49.06919146 45.33688264 -47.62364379 44.27872901 -44.20336914 41.49975586 C-40.65652563 38.57487069 -37.28361599 35.7075563 -34.32446289 32.17553711 C-29.27626595 26.34374544 -23.88518794 20.84869972 -18.46923828 15.3605957 C-17.24227038 14.11183761 -16.02161915 12.85684394 -14.80712891 11.59594727 C-13.03552797 9.7575876 -11.24514113 7.93956671 -9.44946289 6.12475586 C-8.91179794 5.55926025 -8.374133 4.99376465 -7.82017517 4.41113281 C-5.23823629 1.84303629 -3.64161301 0.56812604 0 0 Z " fill="#040404" transform="translate(169.203369140625,125.500244140625)"/>
<path d="M0 0 C3.1749683 1.26772353 4.92297907 3.399928 7.25390625 5.875 C10.69851312 9.6835098 10.69851312 9.6835098 15.19140625 11.875 C14.68882779 16.10257175 12.32092224 18.14632895 9.37890625 21.0625 C8.50621094 21.94292969 7.63351562 22.82335937 6.734375 23.73046875 C4.37340567 25.72151662 3.22192136 26.64037948 0.19140625 26.875 C-3.66692249 25.26736303 -5.97301143 22.64105716 -8.74609375 19.625 C-11.67784952 16.47878479 -11.67784952 16.47878479 -15.74609375 15.625 C-19.81832382 17.28713472 -23.82609621 19.00443297 -27.80859375 20.875 C-27.80859375 17.575 -27.80859375 14.275 -27.80859375 10.875 C-26.66132813 10.45476562 -25.5140625 10.03453125 -24.33203125 9.6015625 C-19.96470052 7.96357288 -15.69767148 6.13803442 -11.43359375 4.25 C-10.72332031 3.93804687 -10.01304687 3.62609375 -9.28125 3.3046875 C-1.53369565 -0.10600056 -1.53369565 -0.10600056 0 0 Z " fill="#D4D3D3" transform="translate(291.80859375,321.125)"/>
<path d="M0 0 C3.38847145 1.12949048 4.19694184 2.12283218 6.4375 4.8125 C8.39088363 7.14743627 10.17310403 9.14713843 12.5 11.125 C14 13 14 13 13.8125 15.625 C12.67190568 20.36285334 10.6282757 24.52329282 8.52734375 28.90234375 C6.33413567 33.66500063 5.42149597 37.76642506 5 43 C-1.4 44.35384615 -1.4 44.35384615 -4.4375 42.5625 C-4.953125 42.046875 -5.46875 41.53125 -6 41 C-5.71125 40.40832031 -5.4225 39.81664062 -5.125 39.20703125 C-4.75375 38.41683594 -4.3825 37.62664062 -4 36.8125 C-3.62875 36.03519531 -3.2575 35.25789063 -2.875 34.45703125 C-1.87934173 31.66118726 -1.5217864 29.93892437 -2 27 C-3.92633808 24.69396629 -3.92633808 24.69396629 -6.4375 22.625 C-9.49880439 19.71361731 -10.89643698 18.2824446 -12.375 14.25 C-11.86582232 9.83712678 -10.42027465 8.77897315 -7 6 C-6.40960938 5.44699219 -5.81921875 4.89398438 -5.2109375 4.32421875 C-1.68926132 1.06479505 -1.68926132 1.06479505 0 0 Z " fill="#D5D4D4" transform="translate(132,161)"/>
<path d="M0 0 C0.95648438 0.01353516 1.91296875 0.02707031 2.8984375 0.04101562 C5.2245811 0.07590778 7.5494653 0.12491661 9.875 0.1875 C9.875 1.1775 9.875 2.1675 9.875 3.1875 C8.885 3.5175 7.895 3.8475 6.875 4.1875 C6.318125 3.8575 5.76125 3.5275 5.1875 3.1875 C2.38032111 1.97358481 0.05795708 1.86197826 -2.9609375 2.30859375 C-8.42939603 4.5295381 -11.95540254 10.43310381 -15.125 15.1875 C-17.64760337 15.63722032 -20.01963298 15.92652522 -22.5625 16.125 C-30.57977241 16.93221667 -37.83206913 18.57413916 -44.80078125 22.81640625 C-47.125 24.1875 -47.125 24.1875 -49.125 24.1875 C-45.51092343 15.74197369 -37.02211598 10.77131883 -29.125 6.8125 C-28.48546387 6.49120117 -27.84592773 6.16990234 -27.18701172 5.83886719 C-18.15725935 1.52771241 -10.00399491 -0.27398582 0 0 Z " fill="#D2D2D2" transform="translate(237.125,164.8125)"/>
<path d="M0 0 C0.66 0.33 1.32 0.66 2 1 C-0.31 7.6 -2.62 14.2 -5 21 C-2.525 21.99 -2.525 21.99 0 23 C0.33865141 25.99948391 0.67105073 28.99944926 1 32 C1.09539062 32.83917969 1.19078125 33.67835938 1.2890625 34.54296875 C1.85214909 39.73140945 2.09664316 44.78126961 2 50 C-1.79472973 49.45550236 -3.27031268 47.96207612 -5.6875 45.0625 C-6.28949219 44.35222656 -6.89148438 43.64195312 -7.51171875 42.91015625 C-11.06095391 38.35483868 -10.58562531 33.56261794 -10 28 C-8.65928156 22.97995518 -6.86060539 18.15819075 -5 13.3125 C-4.51659415 12.01427952 -4.03481155 10.7154534 -3.5546875 9.41601562 C-2.38555129 6.27103921 -1.20049819 3.13310871 0 0 Z " fill="#0D0A0C" transform="translate(199,216)"/>
<path d="M0 0 C2.05078125 0.03255208 4.1015625 0.06510417 6.15234375 0.09765625 C6.23388308 1.68012332 6.29177932 3.26381898 6.33984375 4.84765625 C6.37464844 5.729375 6.40945313 6.61109375 6.4453125 7.51953125 C6.09188969 10.62965194 5.3763101 11.91340359 3.15234375 14.09765625 C0.45703376 14.90161105 -2.01413027 14.91185127 -4.84765625 15.09765625 C-6.07654275 11.58304087 -5.60095474 9.41409238 -4.47265625 5.91015625 C-4.19679688 5.02972656 -3.9209375 4.14929688 -3.63671875 3.2421875 C-2.49225011 0.13172569 -2.49225011 0.13172569 0 0 Z " fill="#D0CECF" transform="translate(341.84765625,255.90234375)"/>
<path d="M0 0 C0 2.97 0 5.94 0 9 C-2.12392506 9.6700834 -4.24917524 10.33596797 -6.375 11 C-7.55835938 11.37125 -8.74171875 11.7425 -9.9609375 12.125 C-13 13 -13 13 -15 13 C-15.28934017 8.08121703 -15.27699736 4.84199691 -12 1 C-8.12120621 -0.40067554 -4.08869736 -0.08017054 0 0 Z " fill="#C9C9C9" transform="translate(212,119)"/>
<path d="M0 0 C1.32 0.66 2.64 1.32 4 2 C4.33 1.34 4.66 0.68 5 0 C5 0.99 5 1.98 5 3 C5.66 3 6.32 3 7 3 C6.67 7.29 6.34 11.58 6 16 C-0.4 17.35384615 -0.4 17.35384615 -3.4375 15.5625 C-3.953125 15.046875 -4.46875 14.53125 -5 14 C-4.72285156 13.40832031 -4.44570312 12.81664062 -4.16015625 12.20703125 C-1.44225847 6.30953569 -1.44225847 6.30953569 0 0 Z " fill="#CBCBCB" transform="translate(131,188)"/>
<path d="M0 0 C0.33 0 0.66 0 1 0 C1 4.29 1 8.58 1 13 C1.66 12.67 2.32 12.34 3 12 C3.33 12.66 3.66 13.32 4 14 C4.33 14 4.66 14 5 14 C5.35113241 17.27138363 5.18055465 18.7155826 3.390625 21.53515625 C2.33101563 22.78619141 2.33101563 22.78619141 1.25 24.0625 C0.55390625 24.89910156 -0.1421875 25.73570312 -0.859375 26.59765625 C-2.84340465 28.82425887 -4.79341257 30.99274715 -7 33 C-7.66 33 -8.32 33 -9 33 C-7.2174919 28.39518741 -7.2174919 28.39518741 -6.08203125 26.33203125 C-1.84229332 18.19368372 -1.20530062 8.97583722 0 0 Z " fill="#CBC3C7" transform="translate(287,247)"/>
<path d="M0 0 C0 0.33 0 0.66 0 1 C-1.02738281 1.09796875 -2.05476563 1.1959375 -3.11328125 1.296875 C-12.55425759 2.28242751 -21.41199206 3.59824918 -29.67578125 8.62890625 C-32 10 -32 10 -34 10 C-32.61811547 6.78956118 -31.07578097 4.95063635 -28.375 2.75 C-27.74335938 2.22921875 -27.11171875 1.7084375 -26.4609375 1.171875 C-25.73777344 0.59179688 -25.73777344 0.59179688 -25 0 C-25 0.66 -25 1.32 -25 2 C-23.10399631 1.68853528 -21.20820413 1.37578283 -19.3125 1.0625 C-18.25675781 0.88847656 -17.20101562 0.71445313 -16.11328125 0.53515625 C-14.19203444 0.20490429 -12.27639153 -0.16367335 -10.375 -0.59375 C-6.74575081 -1.21454262 -3.62630165 -0.55316466 0 0 Z " fill="#C3C1C4" transform="translate(222,179)"/>
<path d="M0 0 C0.66 0.33 1.32 0.66 2 1 C0.68 1.99 -0.64 2.98 -2 4 C-2.66 3.67 -3.32 3.34 -4 3 C-2.68 2.01 -1.36 1.02 0 0 Z M-5 4 C-5 7 -5 7 -7 9.3125 C-9.37199479 12.499868 -9.36071142 14.12235221 -9 18 C-9.66 18 -10.32 18 -11 18 C-11.8125 14.8125 -11.8125 14.8125 -12 11 C-9.6875 8.1875 -9.6875 8.1875 -7 6 C-6.34 5.34 -5.68 4.68 -5 4 Z " fill="#C9C8C9" transform="translate(132,161)"/>
<path d="M0 0 C3.31781492 1.65890746 3.94680795 4.87954938 5.2421875 8.21875 C6.52162552 12.91441945 6.1877185 17.624563 4 22 C3.34 22 2.68 22 2 22 C1.67 22.66 1.34 23.32 1 24 C1.14953125 23.42378906 1.2990625 22.84757812 1.453125 22.25390625 C3.43752688 14.07533565 2.64620464 7.99841515 0 0 Z " fill="#403C3D" transform="translate(282,236)"/>
<path d="M0 0 C0.66 1.32 1.32 2.64 2 4 C-1.19990508 6.74277578 -4.00499382 8.6302836 -8 10 C-6.34908222 5.70761377 -3.26245434 3.1206085 0 0 Z " fill="#B3B1B1" transform="translate(196,179)"/>
<path d="M0 0 C1.62439279 4.82927587 -0.09778158 8.47288629 -2 13 C-3.5625 15.5625 -3.5625 15.5625 -5 17 C-5.66 17 -6.32 17 -7 17 C-5.49637741 13.21283842 -3.94512999 9.44754813 -2.375 5.6875 C-1.92898438 4.61886719 -1.48296875 3.55023438 -1.0234375 2.44921875 C-0.68570312 1.64097656 -0.34796875 0.83273437 0 0 Z " fill="#989697" transform="translate(285,263)"/>
<path d="M0 0 C4.29 0 8.58 0 13 0 C13 0.99 13 1.98 13 3 C12.01 3.33 11.02 3.66 10 4 C9.401875 3.690625 8.80375 3.38125 8.1875 3.0625 C5.3653005 1.69171739 3.0966471 1.85924331 0 2 C0 1.34 0 0.68 0 0 Z " fill="#CCCCCC" transform="translate(234,165)"/>
<path d="M0 0 C0 3.99626903 -1.81747873 5.7262181 -4 9 C-4 9.99 -4 10.98 -4 12 C-4.66 12 -5.32 12 -6 12 C-6.375 9.375 -6.375 9.375 -6 6 C-4.19946381 3.66246179 -2.2392198 1.95931733 0 0 Z " fill="#CCCBCB" transform="translate(126,303)"/>
<path d="M0 0 C0.66 0.33 1.32 0.66 2 1 C-1.96 2.98 -5.92 4.96 -10 7 C-10 5.68 -10 4.36 -10 3 C-6.97265625 2.26757812 -6.97265625 2.26757812 -3.9453125 1.53515625 C-1.9414343 1.05153008 -1.9414343 1.05153008 0 0 Z " fill="#B2B2B2" transform="translate(274,335)"/>
<path d="M0 0 C5.01113235 1.4317521 6.94469549 3.98445693 10 8 C9.67 8.66 9.34 9.32 9 10 C7.49702124 8.52386015 5.99768715 7.04400843 4.5 5.5625 C3.6646875 4.73878906 2.829375 3.91507812 1.96875 3.06640625 C0 1 0 1 0 0 Z " fill="#D0CFCF" transform="translate(127,321)"/>
<path d="M0 0 C1.65 1.65 3.3 3.3 5 5 C3.37660195 6.70884005 1.70680947 8.37446717 0 10 C-0.66 10 -1.32 10 -2 10 C-2 9.34 -2 8.68 -2 8 C-1.484375 7.566875 -0.96875 7.13375 -0.4375 6.6875 C0.2740625 5.8521875 0.2740625 5.8521875 1 5 C0.76956136 2.34533951 0.76956136 2.34533951 0 0 Z " fill="#BDBBBE" transform="translate(130,292)"/>
<path d="M0 0 C2.66666667 2.66666667 5.33333333 5.33333333 8 8 C7.67 8.66 7.34 9.32 7 10 C4.36 7.36 1.72 4.72 -1 2 C-0.67 1.34 -0.34 0.68 0 0 Z " fill="#D0CECF" transform="translate(138,330)"/>
<path d="M0 0 C2.475 0.495 2.475 0.495 5 1 C5 1.66 5 2.32 5 3 C3.68 3.33 2.36 3.66 1 4 C1.33 5.65 1.66 7.3 2 9 C1.34 8.67 0.68 8.34 0 8 C0 5.36 0 2.72 0 0 Z " fill="#322B31" transform="translate(215,192)"/>
<path d="M0 0 C2.97 0.495 2.97 0.495 6 1 C5.67 1.66 5.34 2.32 5 3 C2.67843403 3.40729228 0.3431213 3.74438677 -2 4 C-1.34 2.68 -0.68 1.36 0 0 Z " fill="#DAD9D9" transform="translate(198,178)"/>
<path d="M0 0 C0.66 0.66 1.32 1.32 2 2 C1.875 4 1.875 4 1 6 C-1.0625 7.25 -1.0625 7.25 -3 8 C-2.45276317 4.62537285 -1.9451 2.91765 0 0 Z " fill="#DBD9DA" transform="translate(125,169)"/>
<path d="" fill="#FFFFFF" transform="translate(0,0)"/>
<path d="" fill="#FFFFFF" transform="translate(0,0)"/>
<path d="" fill="#FFFFFF" transform="translate(0,0)"/>
<path d="" fill="#FFFFFF" transform="translate(0,0)"/>
<path d="" fill="#FFFFFF" transform="translate(0,0)"/>
<path d="" fill="#FFFFFF" transform="translate(0,0)"/>
<path d="" fill="#FFFFFF" transform="translate(0,0)"/>
<path d="" fill="#FFFFFF" transform="translate(0,0)"/>
<path d="" fill="#FFFFFF" transform="translate(0,0)"/>
<path d="" fill="#FFFFFF" transform="translate(0,0)"/>
<path d="" fill="#FFFFFF" transform="translate(0,0)"/>
<path d="" fill="#FFFFFF" transform="translate(0,0)"/>
<path d="" fill="#FFFFFF" transform="translate(0,0)"/>
<path d="" fill="#FFFFFF" transform="translate(0,0)"/>
<path d="" fill="#FFFFFF" transform="translate(0,0)"/>
<path d="" fill="#FFFFFF" transform="translate(0,0)"/>
<path d="" fill="#FFFFFF" transform="translate(0,0)"/>
<path d="" fill="#FFFFFF" transform="translate(0,0)"/>
<path d="" fill="#FFFFFF" transform="translate(0,0)"/>
<path d="" fill="#FFFFFF" transform="translate(0,0)"/>
<path d="" fill="#FFFFFF" transform="translate(0,0)"/>
<path d="" fill="#FFFFFF" transform="translate(0,0)"/>
<path d="" fill="#FFFFFF" transform="translate(0,0)"/>
<path d="" fill="#FFFFFF" transform="translate(0,0)"/>
<path d="" fill="#FFFFFF" transform="translate(0,0)"/>
<path d="" fill="#FFFFFF" transform="translate(0,0)"/>
<path d="" fill="#FFFFFF" transform="translate(0,0)"/>
<path d="" fill="#FFFFFF" transform="translate(0,0)"/>
<path d="" fill="#FFFFFF" transform="translate(0,0)"/>
<path d="" fill="#FFFFFF" transform="translate(0,0)"/>
<path d="" fill="#FFFFFF" transform="translate(0,0)"/>
<path d="" fill="#FFFFFF" transform="translate(0,0)"/>
<path d="" fill="#FFFFFF" transform="translate(0,0)"/>
<path d="" fill="#FFFFFF" transform="translate(0,0)"/>
<path d="" fill="#FFFFFF" transform="translate(0,0)"/>
<path d="" fill="#FFFFFF" transform="translate(0,0)"/>
<path d="" fill="#FFFFFF" transform="translate(0,0)"/>
<path d="" fill="#FFFFFF" transform="translate(0,0)"/>
<path d="" fill="#FFFFFF" transform="translate(0,0)"/>
<path d="" fill="#FFFFFF" transform="translate(0,0)"/>
<path d="" fill="#FFFFFF" transform="translate(0,0)"/>
<path d="" fill="#FFFFFF" transform="translate(0,0)"/>
<path d="" fill="#FFFFFF" transform="translate(0,0)"/>
<path d="" fill="#FFFFFF" transform="translate(0,0)"/>
<path d="" fill="#FFFFFF" transform="translate(0,0)"/>
<path d="" fill="#FFFFFF" transform="translate(0,0)"/>
<path d="" fill="#FFFFFF" transform="translate(0,0)"/>
<path d="" fill="#FFFFFF" transform="translate(0,0)"/>
<path d="" fill="#FFFFFF" transform="translate(0,0)"/>
<path d="" fill="#FFFFFF" transform="translate(0,0)"/>
<path d="" fill="#FFFFFF" transform="translate(0,0)"/>
<path d="" fill="#FFFFFF" transform="translate(0,0)"/>
<path d="" fill="#FFFFFF" transform="translate(0,0)"/>
<path d="" fill="#FFFFFF" transform="translate(0,0)"/>
<path d="" fill="#FFFFFF" transform="translate(0,0)"/>
<path d="" fill="#FFFFFF" transform="translate(0,0)"/>
<path d="" fill="#FFFFFF" transform="translate(0,0)"/>
<path d="" fill="#FFFFFF" transform="translate(0,0)"/>
<path d="" fill="#FFFFFF" transform="translate(0,0)"/>
<path d="" fill="#FFFFFF" transform="translate(0,0)"/>
<path d="" fill="#FFFFFF" transform="translate(0,0)"/>
<path d="" fill="#FFFFFF" transform="translate(0,0)"/>
<path d="" fill="#FFFFFF" transform="translate(0,0)"/>
<path d="" fill="#FFFFFF" transform="translate(0,0)"/>
<path d="" fill="#FFFFFF" transform="translate(0,0)"/>
<path d="" fill="#FFFFFF" transform="translate(0,0)"/>
<path d="" fill="#FFFFFF" transform="translate(0,0)"/>
<path d="" fill="#FFFFFF" transform="translate(0,0)"/>
<path d="" fill="#FFFFFF" transform="translate(0,0)"/>
<path d="" fill="#FFFFFF" transform="translate(0,0)"/>
<path d="" fill="#FFFFFF" transform="translate(0,0)"/>
<path d="" fill="#FFFFFF" transform="translate(0,0)"/>
<path d="" fill="#FFFFFF" transform="translate(0,0)"/>
<path d="" fill="#FFFFFF" transform="translate(0,0)"/>
<path d="" fill="#FFFFFF" transform="translate(0,0)"/>
<path d="" fill="#FFFFFF" transform="translate(0,0)"/>
<path d="" fill="#FFFFFF" transform="translate(0,0)"/>
</svg>